<svg width="270" height="33" viewBox="0 0 270 33" fill="none" xmlns="http://www.w3.org/2000/svg">
<path d="M0.350174 1.83594C1.92049 2.02344 3.27986 2.16406 4.4283 2.25781C5.57674 2.32812 6.52596 2.38672 7.27596 2.43359C8.14314 2.48047 8.86971 2.49219 9.45564 2.46875C10.065 2.44531 10.897 2.38672 11.9517 2.29297C12.8424 2.22266 14.0142 2.12891 15.4674 2.01172C16.9205 1.87109 18.7369 1.68359 20.9166 1.44922C20.94 1.98828 20.9517 2.51563 20.9517 3.03125C20.9752 3.52344 20.9986 3.95703 21.022 4.33203C21.0455 4.77734 21.0572 5.1875 21.0572 5.5625C21.0572 5.96094 21.0338 6.46484 20.9869 7.07422C20.94 7.58984 20.858 8.24609 20.7408 9.04297C20.647 9.81641 20.4947 10.7422 20.2838 11.8203C19.9556 10.5547 19.6392 9.53516 19.3345 8.76172C19.0299 7.96484 18.7486 7.33203 18.4908 6.86328C18.2095 6.32422 17.9283 5.91406 17.647 5.63281C17.3424 5.42188 16.9791 5.24609 16.5572 5.10547C16.1822 4.98828 15.7017 4.89453 15.1158 4.82422C14.5533 4.75391 13.8853 4.76563 13.1119 4.85938C12.9947 7.95312 12.9127 10.4609 12.8658 12.3828C12.8189 14.3047 12.7838 15.8047 12.7603 16.8828C12.7369 18.1719 12.7252 19.0977 12.7252 19.6602C12.7486 20.457 12.8775 21.2422 13.1119 22.0156C13.2994 22.6719 13.6041 23.3516 14.026 24.0547C14.4478 24.7578 15.0572 25.3789 15.8541 25.918H11.565C11.1666 25.918 10.6744 25.9414 10.0885 25.9883C9.59627 26.0352 8.96346 26.082 8.19002 26.1289C7.44002 26.1758 6.56111 26.2578 5.5533 26.375C5.90486 25.7656 6.18611 25.2148 6.39705 24.7227C6.60799 24.2305 6.77205 23.8086 6.88924 23.457C7.02986 23.0352 7.13533 22.6602 7.20564 22.332C7.22908 21.8633 7.28767 20.9141 7.38142 19.4844C7.40486 18.8984 7.4283 18.1719 7.45174 17.3047C7.49861 16.4375 7.54549 15.4062 7.59236 14.2109C7.66267 13.0156 7.72127 11.6445 7.76814 10.0977C7.83846 8.52734 7.90877 6.75781 7.97908 4.78906C7.55721 4.67187 7.15877 4.68359 6.78377 4.82422C6.40877 4.94141 6.08064 5.09375 5.79939 5.28125C5.47127 5.51562 5.15486 5.79687 4.85017 6.125C4.54549 6.52344 4.20564 7.03906 3.83064 7.67188C3.50252 8.21094 3.12752 8.92578 2.70564 9.81641C2.28377 10.6836 1.8033 11.7617 1.26424 13.0508C1.14705 11.6914 1.06502 10.5781 1.01814 9.71094C0.971268 8.82031 0.936111 8.12891 0.912674 7.63672C0.889236 7.05078 0.877518 6.61719 0.877518 6.33594C0.877518 6.07812 0.85408 5.73828 0.807205 5.31641C0.76033 4.96484 0.701736 4.50781 0.631424 3.94531C0.561111 3.35938 0.467361 2.65625 0.350174 1.83594ZM21.8495 0.851562C22.3885 0.945312 22.8807 1.01562 23.326 1.0625C23.7714 1.08594 24.1464 1.10938 24.451 1.13281C24.8026 1.15625 25.1073 1.16797 25.3651 1.16797C25.7167 1.14453 26.1268 1.10938 26.5956 1.0625C26.994 1.01562 27.4745 0.957031 28.037 0.886719C28.6229 0.816406 29.2909 0.722656 30.0409 0.605469C29.6893 0.792969 29.3964 0.980469 29.162 1.16797C28.9276 1.33203 28.7401 1.50781 28.5995 1.69531C28.4354 1.90625 28.3065 2.10547 28.2128 2.29297C28.0956 2.59766 27.9667 3.23047 27.826 4.19141C27.6854 5.01172 27.5096 6.23047 27.2987 7.84766C27.1112 9.46484 26.8651 11.6562 26.5604 14.4219C27.4042 13.5781 28.201 12.9453 28.951 12.5234C29.7245 12.0781 30.4042 11.7617 30.9901 11.5742C31.6698 11.3633 32.3026 11.2578 32.8885 11.2578C33.6151 11.3281 34.3534 11.5625 35.1034 11.9609C35.8768 12.3359 36.5917 12.7812 37.2479 13.2969C37.9276 13.8125 38.5135 14.3633 39.0057 14.9492C39.5214 15.5352 39.8846 16.0508 40.0956 16.4961C40.2362 16.8008 40.3065 17.1992 40.3065 17.6914C40.3065 18.1602 40.2596 18.6758 40.1659 19.2383C40.0721 19.8008 39.9432 20.375 39.7792 20.9609C39.6151 21.5469 39.451 22.0977 39.287 22.6133C39.1464 23.1289 39.0175 23.5859 38.9003 23.9844C38.7831 24.3594 38.7128 24.6289 38.6893 24.793C38.6425 25.1445 38.6659 25.4844 38.7596 25.8125C38.83 26.0938 38.9706 26.3984 39.1815 26.7266C39.3925 27.0312 39.7089 27.2891 40.1307 27.5C39.8026 27.4531 39.451 27.418 39.076 27.3945C38.7245 27.3477 38.3846 27.3125 38.0565 27.2891C37.6815 27.2656 37.3065 27.2539 36.9315 27.2539H35.6659C35.2675 27.2539 34.8104 27.2656 34.2948 27.2891C33.7792 27.2891 33.2167 27.3008 32.6073 27.3242C32.9354 27.207 33.2167 27.0547 33.451 26.8672C33.6854 26.6562 33.8846 26.457 34.0487 26.2695C34.2362 26.0586 34.4003 25.8359 34.5409 25.6016C34.6346 25.4141 34.7518 25.0625 34.8925 24.5469C35.0331 24.0078 35.162 23.3984 35.2792 22.7188C35.3964 22.0156 35.4784 21.2773 35.5253 20.5039C35.5956 19.7305 35.6073 18.9922 35.5604 18.2891C35.537 17.5625 35.4315 16.918 35.244 16.3555C35.08 15.793 34.8221 15.3828 34.4706 15.125C33.4159 14.3281 32.455 13.9414 31.5878 13.9648C30.744 13.9648 29.9354 14.3047 29.162 14.9844C28.8807 15.2422 28.6112 15.5 28.3534 15.7578C28.119 15.9922 27.8612 16.2734 27.58 16.6016C27.2987 16.9062 27.0409 17.2227 26.8065 17.5508C26.8065 17.9023 26.8182 18.2891 26.8417 18.7109C26.8651 19.1328 26.8885 19.543 26.912 19.9414C26.9354 20.3867 26.9706 20.832 27.0175 21.2773C27.0643 21.957 27.1346 22.625 27.2284 23.2812C27.2987 23.8438 27.3925 24.4648 27.5096 25.1445C27.6268 25.8008 27.7792 26.3984 27.9667 26.9375C27.662 26.8906 27.3456 26.8789 27.0175 26.9023C26.6893 26.9023 26.3729 26.9023 26.0682 26.9023C25.7167 26.9258 25.3768 26.9375 25.0487 26.9375C24.744 26.9609 24.4276 26.9961 24.0995 27.043C23.8182 27.0898 23.5135 27.1367 23.1854 27.1836C22.8573 27.207 22.5409 27.2539 22.2362 27.3242C22.5175 26.7852 22.7518 26.2578 22.9393 25.7422C23.1268 25.2031 23.2792 24.7344 23.3964 24.3359C23.537 23.8672 23.6542 23.4102 23.7479 22.9648C23.8182 22.6133 23.8651 21.9453 23.8885 20.9609C23.9354 19.9531 23.9706 18.8047 23.994 17.5156C24.0175 16.2031 24.0292 14.8203 24.0292 13.3672C24.0292 11.9141 24.0175 10.5312 23.994 9.21875C23.9706 7.90625 23.9237 6.75781 23.8534 5.77344C23.8065 4.78906 23.7479 4.10937 23.6776 3.73438C23.5839 3.35938 23.455 2.98437 23.2909 2.60938C23.1503 2.28125 22.9628 1.96484 22.7284 1.66016C22.494 1.33203 22.201 1.0625 21.8495 0.851562ZM51.259 21.8398C51.9152 21.8398 52.5246 21.7695 53.0871 21.6289C53.5558 21.5117 54.0011 21.3242 54.423 21.0664C54.8683 20.7852 55.1613 20.375 55.3019 19.8359C55.7707 19.9297 56.1691 20.0117 56.4972 20.082C56.8254 20.1289 57.1066 20.1758 57.341 20.2227C57.5988 20.293 57.8215 20.3398 58.009 20.3633C58.1965 20.4102 58.4191 20.457 58.6769 20.5039C58.9113 20.5508 59.1926 20.6094 59.5207 20.6797C59.8722 20.7266 60.2824 20.7969 60.7511 20.8906C60.3996 20.8438 60.0363 20.8789 59.6613 20.9961C59.3097 21.1133 58.9699 21.2422 58.6418 21.3828C58.2668 21.5469 57.9152 21.7461 57.5871 21.9805C57.3761 22.1211 57.1301 22.332 56.8488 22.6133C56.591 22.8945 56.216 23.1641 55.7238 23.4219C55.2316 23.6797 54.5754 23.9023 53.7551 24.0898C52.9582 24.2539 51.9269 24.3125 50.6613 24.2656C49.1379 24.2188 47.8605 23.9492 46.8293 23.457C45.798 22.9414 44.966 22.3203 44.3332 21.5938C43.7004 20.8438 43.2433 20.0352 42.9621 19.168C42.6808 18.3008 42.5285 17.4922 42.5051 16.7422C42.4816 15.9922 42.7043 15.207 43.173 14.3867C43.6418 13.5664 44.298 12.8164 45.1418 12.1367C46.009 11.457 47.0519 10.9062 48.2707 10.4844C49.4894 10.0391 50.8254 9.81641 52.2785 9.81641C53.1222 9.81641 53.8957 9.92188 54.5988 10.1328C55.3254 10.3203 55.9816 10.5781 56.5676 10.9062C57.1769 11.2344 57.7043 11.6094 58.1496 12.0312C58.5949 12.4297 58.9699 12.8398 59.2746 13.2617C59.5793 13.707 59.8371 14.1758 60.048 14.668C60.2355 15.0898 60.3879 15.5703 60.5051 16.1094C60.6222 16.6484 60.6574 17.1992 60.6105 17.7617C58.8293 17.8086 57.3879 17.8438 56.2863 17.8672C55.2082 17.8906 54.3644 17.9023 53.7551 17.9023H52.173H50.9777C50.5558 17.9023 50.0051 17.9141 49.3254 17.9375C48.6457 17.9609 47.8136 17.9961 46.8293 18.043C46.9465 18.9805 47.2394 19.707 47.7082 20.2227C48.2004 20.7148 48.716 21.0898 49.2551 21.3477C49.8644 21.6289 50.5324 21.793 51.259 21.8398ZM48.0949 15.5117C48.8449 15.5586 49.466 15.5938 49.9582 15.6172C50.4738 15.6406 50.8957 15.6641 51.2238 15.6875C51.5754 15.7109 51.8566 15.7227 52.0676 15.7227H52.9465C53.5324 15.7227 54.6222 15.6875 56.216 15.6172C56.1457 14.5859 55.923 13.8008 55.548 13.2617C55.1965 12.7227 54.8215 12.3242 54.423 12.0664C53.9543 11.7852 53.4386 11.6211 52.8761 11.5742C51.3527 11.5977 50.216 11.9141 49.466 12.5234C48.7394 13.1328 48.2824 14.1289 48.0949 15.5117ZM72.9529 2.29297C73.7029 2.31641 74.3591 2.32812 74.9216 2.32812C75.4841 2.30469 75.9412 2.29297 76.2927 2.29297H77.3123C77.5701 2.26953 77.8865 2.25781 78.2615 2.25781C78.5896 2.25781 78.9881 2.25781 79.4568 2.25781C79.9256 2.25781 80.4646 2.26953 81.074 2.29297C81.2615 2.94922 81.4724 3.59375 81.7068 4.22656C81.9646 4.83594 82.1873 5.38672 82.3748 5.87891C82.6091 6.46484 82.8435 7.01563 83.0779 7.53125C83.3123 8.04687 83.5935 8.66797 83.9216 9.39453C84.2029 10.0039 84.5427 10.7539 84.9412 11.6445C85.3396 12.5117 85.8084 13.5078 86.3474 14.6328C86.6052 13.9062 86.8396 13.2383 87.0506 12.6289C87.2849 12.0195 87.4841 11.4922 87.6482 11.0469C87.8357 10.5312 87.9881 10.0625 88.1052 9.64062C88.2224 9.21875 88.3513 8.70313 88.492 8.09375C88.6091 7.57813 88.7381 6.95703 88.8787 6.23047C89.0427 5.50391 89.2068 4.66016 89.3709 3.69922C90.0506 3.69922 90.6599 3.69922 91.199 3.69922C91.7381 3.69922 92.2068 3.6875 92.6052 3.66406C93.0506 3.66406 93.449 3.65234 93.8006 3.62891C94.1756 3.62891 94.6795 3.60547 95.3123 3.55859C95.8513 3.51172 96.5662 3.47656 97.4568 3.45312C98.3709 3.40625 99.4959 3.34766 100.832 3.27734C100.34 3.62891 99.9412 3.98047 99.6365 4.33203C99.3552 4.66016 99.1326 4.95312 98.9685 5.21094C98.781 5.51562 98.6638 5.80859 98.617 6.08984C98.5701 6.32422 98.5232 6.86328 98.4763 7.70703C98.4529 8.55078 98.4177 9.55859 98.3709 10.7305C98.3474 11.8789 98.324 13.1094 98.3006 14.4219C98.3006 15.7344 98.3123 16.9766 98.3357 18.1484C98.3591 19.3203 98.3943 20.3398 98.4412 21.207C98.5115 22.0508 98.6052 22.5898 98.7224 22.8242C98.8865 23.1055 99.1091 23.4336 99.3904 23.8086C99.6482 24.1367 99.9763 24.5117 100.375 24.9336C100.797 25.3555 101.347 25.8242 102.027 26.3398C100.949 26.3867 100.047 26.4219 99.3201 26.4453C98.617 26.4688 98.031 26.4922 97.5623 26.5156C97.0232 26.5391 96.5896 26.5508 96.2615 26.5508C95.9099 26.5508 95.4295 26.5625 94.8201 26.5859C94.281 26.6094 93.5662 26.6445 92.6756 26.6914C91.7849 26.7148 90.6365 26.7617 89.2302 26.832C89.5584 26.457 89.8631 26.082 90.1443 25.707C90.4256 25.332 90.6599 24.9922 90.8474 24.6875C91.0818 24.3359 91.281 23.9961 91.4451 23.668C91.6091 23.2227 91.7381 22.4141 91.8318 21.2422C91.9256 20.2344 91.9959 18.793 92.0427 16.918C92.0896 15.0195 92.0896 12.4766 92.0427 9.28906C91.5974 10.0156 91.199 10.7422 90.8474 11.4688C90.5193 12.1719 90.2263 12.8164 89.9685 13.4023C89.6873 14.082 89.4295 14.7383 89.1951 15.3711C88.9607 16.0273 88.7146 16.7539 88.4568 17.5508C88.2224 18.2305 87.9412 19.0391 87.6131 19.9766C87.3084 20.9141 86.9568 21.9453 86.5584 23.0703L85.2224 23.1406C85.0349 22.2031 84.8474 21.3594 84.6599 20.6094C84.4724 19.8359 84.2849 19.1797 84.0974 18.6406C83.8865 18.0078 83.6756 17.4453 83.4646 16.9531C83.2302 16.4609 82.9724 15.9102 82.6912 15.3008C82.4334 14.7852 82.117 14.1758 81.742 13.4727C81.3904 12.7695 80.9802 11.9844 80.5115 11.1172C80.2771 13.5078 80.1365 15.4531 80.0896 16.9531C80.0427 18.4297 80.0427 19.5781 80.0896 20.3984C80.1365 21.3828 80.2068 22.0977 80.3006 22.543C80.4412 22.9414 80.6638 23.3867 80.9685 23.8789C81.2263 24.3008 81.5779 24.8047 82.0232 25.3906C82.492 25.9531 83.0896 26.5859 83.8162 27.2891C83.3006 27.2891 82.7615 27.2891 82.199 27.2891C81.6365 27.2891 81.1209 27.3008 80.6521 27.3242C80.0896 27.3477 79.5388 27.3594 78.9998 27.3594C78.4373 27.3828 77.781 27.418 77.031 27.4648C76.3748 27.5117 75.5896 27.5586 74.6756 27.6055C73.7615 27.6523 72.7068 27.7344 71.5115 27.8516C72.0271 27.5234 72.449 27.207 72.7771 26.9023C73.1052 26.5742 73.3631 26.2812 73.5506 26.0234C73.7849 25.7188 73.9607 25.4141 74.0779 25.1094C74.1482 24.9219 74.2068 24.5117 74.2537 23.8789C74.324 23.2461 74.3826 22.4727 74.4295 21.5586C74.4998 20.6445 74.5466 19.625 74.5701 18.5C74.617 17.375 74.6521 16.2383 74.6756 15.0898C74.7224 13.918 74.7576 12.7812 74.781 11.6797C74.8045 10.5547 74.8162 9.54688 74.8162 8.65625C74.8396 7.74219 74.8513 6.98047 74.8513 6.37109C74.8513 5.76172 74.8513 5.375 74.8513 5.21094C74.781 4.85938 74.6756 4.50781 74.5349 4.15625C74.4177 3.85156 74.2302 3.53516 73.9724 3.20703C73.7146 2.87891 73.3748 2.57422 72.9529 2.29297ZM104.366 13.2617C104.483 13.1211 104.554 12.8633 104.577 12.4883C104.624 12.0898 104.718 11.6445 104.858 11.1523C105.023 10.6602 105.292 10.1445 105.667 9.60547C106.042 9.06641 106.651 8.5625 107.495 8.09375C108.315 7.625 109.112 7.34375 109.886 7.25C110.659 7.15625 111.398 7.19141 112.101 7.35547C112.804 7.51953 113.46 7.77734 114.069 8.12891C114.702 8.48047 115.276 8.86719 115.792 9.28906C116.144 9.57031 116.425 9.98047 116.636 10.5195C116.847 11.0352 117.011 11.6211 117.128 12.2773C117.245 12.9336 117.327 13.625 117.374 14.3516C117.444 15.0547 117.491 15.7461 117.515 16.4258C117.538 17.082 117.55 17.6914 117.55 18.2539C117.573 18.793 117.62 19.2383 117.69 19.5898C117.784 20.1055 117.948 20.5508 118.183 20.9258C118.417 21.2773 118.675 21.582 118.956 21.8398C119.237 22.0742 119.519 22.2617 119.8 22.4023C120.081 22.543 120.327 22.6484 120.538 22.7188C120.679 22.7891 120.808 22.8359 120.925 22.8594C121.159 22.9531 121.323 22.9531 121.417 22.8594C121.276 23.1875 121.148 23.4688 121.03 23.7031C120.913 23.9375 120.819 24.1367 120.749 24.3008C120.655 24.4883 120.573 24.6406 120.503 24.7578C120.433 24.8984 120.351 25.0273 120.257 25.1445C120.187 25.2617 120.093 25.3906 119.976 25.5312C119.858 25.6719 119.741 25.8242 119.624 25.9883C119.319 25.8711 119.026 25.7305 118.745 25.5664C118.487 25.4023 118.253 25.25 118.042 25.1094C117.784 24.9453 117.55 24.7812 117.339 24.6172C117.128 24.4531 116.929 24.2656 116.741 24.0547C116.577 23.8672 116.401 23.668 116.214 23.457C116.05 23.2461 115.909 23.0117 115.792 22.7539C115.651 23.0586 115.312 23.4922 114.773 24.0547C114.257 24.6172 113.577 25.1328 112.733 25.6016C111.89 26.0469 110.905 26.3633 109.78 26.5508C108.679 26.7383 107.46 26.6094 106.124 26.1641C105.538 25.9766 104.987 25.707 104.472 25.3555C103.956 24.9805 103.511 24.5352 103.136 24.0195C102.784 23.5039 102.526 22.918 102.362 22.2617C102.222 21.582 102.233 20.832 102.398 20.0117C102.562 19.1914 102.855 18.5 103.276 17.9375C103.698 17.375 104.202 16.918 104.788 16.5664C105.374 16.2148 106.03 15.9453 106.757 15.7578C107.483 15.5703 108.233 15.4414 109.007 15.3711C109.616 15.3477 110.226 15.3828 110.835 15.4766C111.351 15.5703 111.89 15.7461 112.452 16.0039C113.015 16.2383 113.495 16.6016 113.894 17.0938C113.87 15.8516 113.823 14.8672 113.753 14.1406C113.706 13.3906 113.659 12.8164 113.612 12.418C113.519 11.9492 113.437 11.6211 113.366 11.4336C113.249 11.2695 113.12 11.082 112.98 10.8711C112.862 10.6602 112.71 10.4727 112.523 10.3086C112.335 10.1211 112.101 9.96875 111.819 9.85156C111.538 9.73438 111.21 9.6875 110.835 9.71094C110.437 9.73438 110.12 9.83984 109.886 10.0273C109.651 10.2148 109.464 10.4375 109.323 10.6953C109.206 10.9297 109.136 11.1875 109.112 11.4688C109.089 11.75 109.101 11.9961 109.148 12.207C109.194 12.3477 109.265 12.5 109.358 12.6641C109.452 12.8047 109.581 12.957 109.745 13.1211C109.909 13.2852 110.132 13.4258 110.413 13.543C109.874 13.6133 109.394 13.6719 108.972 13.7188C108.55 13.7422 108.187 13.7773 107.882 13.8242C107.53 13.8711 107.226 13.9062 106.968 13.9297C106.71 13.9531 106.405 14 106.054 14.0703C105.749 14.1172 105.374 14.1758 104.929 14.2461C104.483 14.3164 103.968 14.4102 103.382 14.5273C103.523 14.3633 103.651 14.2109 103.769 14.0703C103.886 13.9062 103.991 13.7656 104.085 13.6484C104.179 13.5078 104.273 13.3789 104.366 13.2617ZM109.64 17.4453C109.218 17.4688 108.796 17.5742 108.374 17.7617C107.952 17.9258 107.577 18.1719 107.249 18.5C106.921 18.8047 106.64 19.168 106.405 19.5898C106.194 19.9883 106.089 20.4336 106.089 20.9258C106.089 21.418 106.206 21.8516 106.44 22.2266C106.698 22.5781 107.026 22.8711 107.425 23.1055C107.847 23.3398 108.292 23.4805 108.761 23.5273C109.253 23.5742 109.733 23.5273 110.202 23.3867C110.648 23.2227 111.069 22.9648 111.468 22.6133C111.866 22.2383 112.206 21.8398 112.487 21.418C112.769 20.9727 112.968 20.5391 113.085 20.1172C113.202 19.6719 113.214 19.3086 113.12 19.0273C112.933 18.418 112.511 17.9961 111.855 17.7617C111.198 17.5039 110.46 17.3984 109.64 17.4453ZM120.768 10.6602C121.213 10.6836 121.612 10.6953 121.963 10.6953C122.338 10.6719 122.655 10.6484 122.912 10.625C123.217 10.6016 123.487 10.5781 123.721 10.5547C124.073 10.5078 124.436 10.4492 124.811 10.3789C125.139 10.332 125.479 10.2734 125.83 10.2031C126.205 10.1094 126.569 10.0039 126.92 9.88672C126.78 10.2383 126.662 10.543 126.569 10.8008C126.475 11.0586 126.405 11.2812 126.358 11.4688C126.287 11.6797 126.252 11.8555 126.252 11.9961C126.229 12.1602 126.217 12.3594 126.217 12.5938C126.194 12.9922 126.194 13.6367 126.217 14.5273C127.436 13.4727 128.455 12.6523 129.276 12.0664C130.119 11.4805 130.787 11.0234 131.28 10.6953C131.866 10.3203 132.323 10.0742 132.651 9.95703C133.518 9.81641 134.28 10.0156 134.936 10.5547C135.217 10.7891 135.487 11.1055 135.744 11.5039C136.002 11.8789 136.225 12.3828 136.412 13.0156C136.6 13.6484 136.741 14.4102 136.834 15.3008C136.928 16.168 136.94 17.2109 136.869 18.4297C136.377 18.4766 135.932 18.5234 135.534 18.5703C135.159 18.6172 134.842 18.6523 134.584 18.6758C134.28 18.7227 133.998 18.7461 133.741 18.7461L132.791 18.8516C132.463 18.8984 132.053 18.9453 131.561 18.9922C131.092 19.0156 130.518 19.0625 129.838 19.1328C130.823 18.3359 131.455 17.6445 131.737 17.0586C132.041 16.4492 132.17 15.9453 132.123 15.5469C132.077 15.1016 131.866 14.7148 131.491 14.3867C131.045 14.1289 130.565 14.0352 130.049 14.1055C129.604 14.1523 129.088 14.3516 128.502 14.7031C127.916 15.0547 127.295 15.7109 126.639 16.6719C126.686 18.1719 126.733 19.4141 126.78 20.3984C126.85 21.3828 126.909 22.1797 126.955 22.7891C127.026 23.4922 127.084 24.043 127.131 24.4414C127.202 24.793 127.342 25.168 127.553 25.5664C127.717 25.8945 127.952 26.2578 128.256 26.6562C128.561 27.0547 128.959 27.4531 129.452 27.8516C128.42 27.8047 127.577 27.8047 126.92 27.8516C126.522 27.875 126.17 27.8984 125.866 27.9219C125.537 27.9688 125.186 28.0156 124.811 28.0625C124.483 28.1094 124.096 28.1562 123.651 28.2031C123.229 28.2734 122.76 28.3438 122.244 28.4141C122.432 28.1562 122.584 27.8516 122.702 27.5C122.819 27.1719 122.912 26.8555 122.983 26.5508C123.077 26.1992 123.147 25.8359 123.194 25.4609C123.217 25.1328 123.229 24.6406 123.229 23.9844C123.252 23.3281 123.241 22.5898 123.194 21.7695C123.17 20.9258 123.135 20.0586 123.088 19.168C123.041 18.2539 122.983 17.3984 122.912 16.6016C122.842 15.8047 122.76 15.1133 122.666 14.5273C122.596 13.918 122.514 13.4961 122.42 13.2617C122.303 12.9805 122.162 12.6992 121.998 12.418C121.858 12.1602 121.682 11.8906 121.471 11.6094C121.26 11.3047 121.026 10.9883 120.768 10.6602ZM153.623 10.625C153.599 10.2969 153.588 10.0156 153.588 9.78125C153.588 9.54688 153.576 9.35938 153.552 9.21875C153.529 9.05469 153.517 8.92578 153.517 8.83203C153.494 8.73828 153.47 8.63281 153.447 8.51562C153.4 8.39844 153.353 8.28125 153.306 8.16406C153.283 8.04687 153.248 7.89453 153.201 7.70703C153.459 7.75391 153.705 7.78906 153.939 7.8125C154.173 7.83594 154.384 7.85938 154.572 7.88281C154.783 7.90625 154.97 7.91797 155.134 7.91797H155.732C155.92 7.91797 156.142 7.91797 156.4 7.91797C156.681 7.91797 157.009 7.90625 157.384 7.88281C157.267 8 157.162 8.25781 157.068 8.65625C156.998 9.03125 156.927 9.5 156.857 10.0625C156.81 10.6016 156.763 11.1992 156.716 11.8555C156.67 12.5117 156.634 13.168 156.611 13.8242C156.541 15.3945 156.506 17.1406 156.506 19.0625C156.365 20.7734 156.283 22.2148 156.259 23.3867C156.236 24.5352 156.236 25.4961 156.259 26.2695C156.283 27.043 156.33 27.6523 156.4 28.0977C156.494 28.543 156.588 28.8828 156.681 29.1172C156.775 29.375 156.869 29.5625 156.963 29.6797C157.08 29.8203 157.173 29.9492 157.244 30.0664C157.338 30.207 157.466 30.3828 157.631 30.5938C157.771 30.7812 157.959 30.9922 158.193 31.2266C158.427 31.4609 158.732 31.7305 159.107 32.0352C158.709 31.9883 158.298 31.9531 157.877 31.9297C157.478 31.9297 157.115 31.9297 156.787 31.9297C156.388 31.9297 156.013 31.9414 155.662 31.9648C155.263 31.9883 154.795 32.0352 154.256 32.1055C153.787 32.1523 153.213 32.2227 152.533 32.3164C151.853 32.4336 151.056 32.5859 150.142 32.7734C150.588 32.4453 150.951 32.1172 151.232 31.7891C151.537 31.4609 151.783 31.168 151.97 30.9102C152.181 30.6289 152.345 30.3477 152.463 30.0664C152.556 29.7148 152.638 29.0938 152.709 28.2031C152.756 27.4531 152.791 26.375 152.814 24.9688C152.838 23.5391 152.826 21.6289 152.779 19.2383C152.193 20.1289 151.584 20.8203 150.951 21.3125C150.318 21.8047 149.732 22.1797 149.193 22.4375C148.56 22.7422 147.927 22.9414 147.295 23.0352C145.677 23.1758 144.224 23.1055 142.935 22.8242C141.67 22.5195 140.756 22.0156 140.193 21.3125C139.912 20.9609 139.607 20.3398 139.279 19.4492C138.974 18.5352 138.763 17.5273 138.646 16.4258C138.552 15.3008 138.611 14.1875 138.822 13.0859C139.056 11.9609 139.584 11.0117 140.404 10.2383C141.201 9.46484 141.904 8.87891 142.513 8.48047C143.123 8.08203 143.685 7.8125 144.201 7.67188C144.716 7.50781 145.197 7.44922 145.642 7.49609C146.088 7.51953 146.556 7.56641 147.048 7.63672C147.869 7.77734 148.666 7.97656 149.439 8.23438C150.119 8.46875 150.834 8.77344 151.584 9.14844C152.334 9.52344 153.013 10.0156 153.623 10.625ZM145.923 10.5547C145.22 10.7656 144.693 11.1289 144.341 11.6445C143.99 12.1367 143.767 12.7109 143.673 13.3672C143.58 14 143.568 14.668 143.638 15.3711C143.732 16.0742 143.861 16.7305 144.025 17.3398C144.213 17.9492 144.4 18.4766 144.588 18.9219C144.798 19.3438 144.963 19.6133 145.08 19.7305C145.408 20.0586 145.724 20.2578 146.029 20.3281C146.357 20.3984 146.767 20.4219 147.259 20.3984C147.611 20.3281 148.056 20.1406 148.595 19.8359C149.064 19.5781 149.638 19.168 150.318 18.6055C150.998 18.043 151.818 17.2344 152.779 16.1797L152.673 13.3672C152.509 13.2266 152.263 12.9453 151.935 12.5234C151.631 12.0781 151.209 11.668 150.67 11.293C150.131 10.8945 149.474 10.6016 148.701 10.4141C147.927 10.2031 147.002 10.25 145.923 10.5547ZM159.513 11.3281C160.122 11.4453 160.649 11.5391 161.095 11.6094C161.563 11.6562 161.962 11.7031 162.29 11.75C162.665 11.7969 162.993 11.832 163.274 11.8555C163.556 11.8789 163.884 11.9023 164.259 11.9258C164.892 11.9492 165.782 11.9492 166.931 11.9258C166.251 11.8789 165.712 12.0547 165.313 12.4531C164.938 12.8281 164.657 13.2617 164.47 13.7539C164.235 14.3398 164.106 15.0195 164.083 15.793C164.036 16.8242 164.06 17.7617 164.153 18.6055C164.27 19.4258 164.47 20.1289 164.751 20.7148C165.056 21.2773 165.454 21.6992 165.946 21.9805C166.438 22.2383 167.071 22.3086 167.845 22.1914C168.618 22.0742 169.204 21.8047 169.602 21.3828C170.024 20.9375 170.329 20.3984 170.517 19.7656C170.704 19.1094 170.81 18.3711 170.833 17.5508C170.88 16.7305 170.915 15.875 170.938 14.9844C170.938 14.0938 170.927 13.4609 170.903 13.0859C170.903 12.6875 170.892 12.4297 170.868 12.3125C170.845 12.1953 170.81 12.1484 170.763 12.1719C170.716 12.1719 170.657 12.1133 170.587 11.9961C170.54 11.9023 170.47 11.8086 170.376 11.7148C170.306 11.6211 170.212 11.5156 170.095 11.3984C169.977 11.2578 169.849 11.1172 169.708 10.9766C170.317 11 170.856 11.0234 171.325 11.0469C171.817 11.0469 172.227 11.0586 172.556 11.082C172.931 11.1055 173.259 11.1289 173.54 11.1523C173.798 11.1758 174.138 11.2109 174.56 11.2578C174.911 11.3047 175.368 11.3516 175.931 11.3984C176.493 11.4453 177.161 11.5156 177.935 11.6094C177.395 11.7266 176.962 11.9023 176.634 12.1367C176.306 12.3711 176.048 12.6055 175.86 12.8398C175.649 13.0977 175.497 13.3789 175.403 13.6836C175.333 14.082 175.333 14.6914 175.403 15.5117C175.45 16.2383 175.567 17.2344 175.755 18.5C175.942 19.7656 176.235 21.4297 176.634 23.4922L173.856 25.1445L173.294 20.4688C172.614 21.6172 171.888 22.5078 171.114 23.1406C170.364 23.75 169.661 24.1953 169.005 24.4766C168.231 24.8047 167.481 24.9922 166.755 25.0391C165.794 25.0391 164.962 24.9805 164.259 24.8633C163.579 24.7227 162.993 24.5469 162.501 24.3359C162.009 24.125 161.61 23.8906 161.306 23.6328C161.024 23.3516 160.813 23.0703 160.673 22.7891C160.345 22.2031 160.169 21.4531 160.145 20.5391C160.122 19.6016 160.157 18.6758 160.251 17.7617C160.345 16.8242 160.45 15.9688 160.567 15.1953C160.685 14.4219 160.72 13.8945 160.673 13.6133C160.626 13.4023 160.556 13.168 160.462 12.9102C160.368 12.6992 160.251 12.4648 160.11 12.207C159.97 11.9258 159.77 11.6328 159.513 11.3281ZM187.656 21.8398C188.313 21.8398 188.922 21.7695 189.485 21.6289C189.953 21.5117 190.399 21.3242 190.821 21.0664C191.266 20.7852 191.559 20.375 191.699 19.8359C192.168 19.9297 192.567 20.0117 192.895 20.082C193.223 20.1289 193.504 20.1758 193.739 20.2227C193.996 20.293 194.219 20.3398 194.406 20.3633C194.594 20.4102 194.817 20.457 195.074 20.5039C195.309 20.5508 195.59 20.6094 195.918 20.6797C196.27 20.7266 196.68 20.7969 197.149 20.8906C196.797 20.8438 196.434 20.8789 196.059 20.9961C195.707 21.1133 195.367 21.2422 195.039 21.3828C194.664 21.5469 194.313 21.7461 193.985 21.9805C193.774 22.1211 193.528 22.332 193.246 22.6133C192.989 22.8945 192.614 23.1641 192.121 23.4219C191.629 23.6797 190.973 23.9023 190.153 24.0898C189.356 24.2539 188.324 24.3125 187.059 24.2656C185.535 24.2188 184.258 23.9492 183.227 23.457C182.196 22.9414 181.364 22.3203 180.731 21.5938C180.098 20.8438 179.641 20.0352 179.36 19.168C179.078 18.3008 178.926 17.4922 178.903 16.7422C178.879 15.9922 179.102 15.207 179.571 14.3867C180.039 13.5664 180.696 12.8164 181.539 12.1367C182.406 11.457 183.449 10.9062 184.668 10.4844C185.887 10.0391 187.223 9.81641 188.676 9.81641C189.52 9.81641 190.293 9.92188 190.996 10.1328C191.723 10.3203 192.379 10.5781 192.965 10.9062C193.574 11.2344 194.102 11.6094 194.547 12.0312C194.992 12.4297 195.367 12.8398 195.672 13.2617C195.977 13.707 196.235 14.1758 196.446 14.668C196.633 15.0898 196.785 15.5703 196.903 16.1094C197.02 16.6484 197.055 17.1992 197.008 17.7617C195.227 17.8086 193.785 17.8438 192.684 17.8672C191.606 17.8906 190.762 17.9023 190.153 17.9023H188.571H187.375C186.953 17.9023 186.403 17.9141 185.723 17.9375C185.043 17.9609 184.211 17.9961 183.227 18.043C183.344 18.9805 183.637 19.707 184.106 20.2227C184.598 20.7148 185.114 21.0898 185.653 21.3477C186.262 21.6289 186.93 21.793 187.656 21.8398ZM184.492 15.5117C185.242 15.5586 185.864 15.5938 186.356 15.6172C186.871 15.6406 187.293 15.6641 187.621 15.6875C187.973 15.7109 188.254 15.7227 188.465 15.7227H189.344C189.93 15.7227 191.02 15.6875 192.614 15.6172C192.543 14.5859 192.321 13.8008 191.946 13.2617C191.594 12.7227 191.219 12.3242 190.821 12.0664C190.352 11.7852 189.836 11.6211 189.274 11.5742C187.75 11.5977 186.614 11.9141 185.864 12.5234C185.137 13.1328 184.68 14.1289 184.492 15.5117ZM208.436 2.53906C209.257 2.63281 209.948 2.70312 210.511 2.75C211.073 2.77344 211.518 2.79688 211.847 2.82031C212.245 2.84375 212.561 2.85547 212.796 2.85547C213.194 2.85547 213.651 2.84375 214.167 2.82031C214.612 2.79688 215.128 2.76172 215.714 2.71484C216.323 2.64453 216.979 2.53906 217.682 2.39844C217.354 2.75 217.085 3.08984 216.874 3.41797C216.663 3.72266 216.499 4.00391 216.382 4.26172C216.241 4.54297 216.124 4.80078 216.03 5.03516C215.936 5.33984 215.831 5.80859 215.714 6.44141C215.597 6.98047 215.468 7.74219 215.327 8.72656C215.21 9.71094 215.057 11 214.87 12.5938C215.667 12.6172 216.358 12.6289 216.944 12.6289C217.53 12.6055 218.022 12.5938 218.421 12.5938H219.581C219.909 12.5703 220.284 12.5469 220.706 12.5234C221.409 12.5 222.475 12.4297 223.905 12.3125C224.022 11.2344 224.081 10.3086 224.081 9.53516C224.104 8.73828 224.093 8.07031 224.046 7.53125C223.999 6.92187 223.929 6.40625 223.835 5.98438C223.764 5.75 223.659 5.46875 223.518 5.14062C223.401 4.85938 223.237 4.51953 223.026 4.12109C222.839 3.69922 222.581 3.19531 222.253 2.60938C222.862 2.70312 223.401 2.77344 223.87 2.82031C224.362 2.84375 224.772 2.86719 225.1 2.89062C225.475 2.91406 225.792 2.92578 226.05 2.92578C226.307 2.92578 226.647 2.91406 227.069 2.89062C227.421 2.86719 227.854 2.85547 228.37 2.85547C228.886 2.83203 229.518 2.79688 230.268 2.75C230.081 3.07813 229.917 3.41797 229.776 3.76953C229.636 4.12109 229.518 4.4375 229.425 4.71875C229.331 5.04688 229.237 5.375 229.143 5.70312C229.026 6.19531 228.921 6.91016 228.827 7.84766C228.757 8.78516 228.686 9.82812 228.616 10.9766C228.569 12.125 228.522 13.3203 228.475 14.5625C228.452 15.8047 228.429 16.9766 228.405 18.0781C228.405 19.1797 228.417 20.1641 228.44 21.0312C228.464 21.875 228.511 22.4727 228.581 22.8242C228.651 23.2461 228.768 23.6797 228.932 24.125C229.073 24.5234 229.261 24.957 229.495 25.4258C229.729 25.8711 230.034 26.293 230.409 26.6914L221.936 27.3242C222.288 26.9961 222.569 26.6797 222.78 26.375C222.991 26.0469 223.155 25.7656 223.272 25.5312C223.389 25.2734 223.472 25.0273 223.518 24.793C223.542 24.5117 223.577 24.0195 223.624 23.3164C223.671 22.7305 223.718 21.8984 223.764 20.8203C223.811 19.7422 223.858 18.3125 223.905 16.5312C223.577 16.5312 223.179 16.543 222.71 16.5664C222.264 16.5664 221.843 16.5781 221.444 16.6016C220.975 16.625 220.483 16.6367 219.968 16.6367C219.452 16.6602 218.913 16.6836 218.35 16.707C217.882 16.7539 217.354 16.8008 216.768 16.8477C216.206 16.8711 215.643 16.9062 215.081 16.9531C215.034 17.9375 215.034 18.8047 215.081 19.5547C215.128 20.2812 215.198 20.9023 215.292 21.418C215.386 22.0273 215.503 22.5547 215.643 23C215.784 23.4219 215.936 23.8438 216.1 24.2656C216.241 24.6406 216.405 25.0391 216.593 25.4609C216.804 25.8828 217.014 26.2578 217.225 26.5859C216.78 26.5391 216.37 26.5039 215.995 26.4805C215.62 26.4336 215.292 26.3867 215.011 26.3398C214.682 26.3164 214.366 26.293 214.061 26.2695C213.757 26.2695 213.393 26.2578 212.972 26.2344C212.597 26.2109 212.128 26.1992 211.565 26.1992C211.003 26.1758 210.347 26.1641 209.597 26.1641C210.042 25.7188 210.393 25.2852 210.651 24.8633C210.932 24.418 211.132 24.0195 211.249 23.668C211.389 23.2461 211.483 22.8594 211.53 22.5078C211.554 22.2031 211.565 21.6289 211.565 20.7852C211.589 19.9414 211.589 18.9805 211.565 17.9023C211.565 16.8008 211.554 15.6523 211.53 14.457C211.507 13.2383 211.472 12.1016 211.425 11.0469C211.401 9.99219 211.366 9.08984 211.319 8.33984C211.296 7.56641 211.272 7.08594 211.249 6.89844C211.132 6.47656 210.956 6.01953 210.722 5.52734C210.511 5.12891 210.229 4.67187 209.878 4.15625C209.526 3.61719 209.046 3.07813 208.436 2.53906ZM231.518 11.3281C232.127 11.4453 232.654 11.5391 233.1 11.6094C233.568 11.6562 233.967 11.7031 234.295 11.75C234.67 11.7969 234.998 11.832 235.279 11.8555C235.561 11.8789 235.889 11.9023 236.264 11.9258C236.897 11.9492 237.787 11.9492 238.936 11.9258C238.256 11.8789 237.717 12.0547 237.318 12.4531C236.943 12.8281 236.662 13.2617 236.475 13.7539C236.24 14.3398 236.111 15.0195 236.088 15.793C236.041 16.8242 236.065 17.7617 236.158 18.6055C236.276 19.4258 236.475 20.1289 236.756 20.7148C237.061 21.2773 237.459 21.6992 237.951 21.9805C238.443 22.2383 239.076 22.3086 239.85 22.1914C240.623 22.0742 241.209 21.8047 241.608 21.3828C242.029 20.9375 242.334 20.3984 242.522 19.7656C242.709 19.1094 242.815 18.3711 242.838 17.5508C242.885 16.7305 242.92 15.875 242.943 14.9844C242.943 14.0938 242.932 13.4609 242.908 13.0859C242.908 12.6875 242.897 12.4297 242.873 12.3125C242.85 12.1953 242.815 12.1484 242.768 12.1719C242.721 12.1719 242.662 12.1133 242.592 11.9961C242.545 11.9023 242.475 11.8086 242.381 11.7148C242.311 11.6211 242.217 11.5156 242.1 11.3984C241.983 11.2578 241.854 11.1172 241.713 10.9766C242.322 11 242.861 11.0234 243.33 11.0469C243.822 11.0469 244.233 11.0586 244.561 11.082C244.936 11.1055 245.264 11.1289 245.545 11.1523C245.803 11.1758 246.143 11.2109 246.565 11.2578C246.916 11.3047 247.373 11.3516 247.936 11.3984C248.498 11.4453 249.166 11.5156 249.94 11.6094C249.401 11.7266 248.967 11.9023 248.639 12.1367C248.311 12.3711 248.053 12.6055 247.865 12.8398C247.654 13.0977 247.502 13.3789 247.408 13.6836C247.338 14.082 247.338 14.6914 247.408 15.5117C247.455 16.2383 247.572 17.2344 247.76 18.5C247.947 19.7656 248.24 21.4297 248.639 23.4922L245.861 25.1445L245.299 20.4688C244.619 21.6172 243.893 22.5078 243.119 23.1406C242.369 23.75 241.666 24.1953 241.01 24.4766C240.236 24.8047 239.486 24.9922 238.76 25.0391C237.799 25.0391 236.967 24.9805 236.264 24.8633C235.584 24.7227 234.998 24.5469 234.506 24.3359C234.014 24.125 233.615 23.8906 233.311 23.6328C233.029 23.3516 232.818 23.0703 232.678 22.7891C232.35 22.2031 232.174 21.4531 232.151 20.5391C232.127 19.6016 232.162 18.6758 232.256 17.7617C232.35 16.8242 232.455 15.9688 232.572 15.1953C232.69 14.4219 232.725 13.8945 232.678 13.6133C232.631 13.4023 232.561 13.168 232.467 12.9102C232.373 12.6992 232.256 12.4648 232.115 12.207C231.975 11.9258 231.776 11.6328 231.518 11.3281ZM250.521 2.82031C251.06 2.96094 251.552 3.06641 251.997 3.13672C252.466 3.18359 252.865 3.21875 253.193 3.24219C253.591 3.26562 253.955 3.27734 254.283 3.27734C254.611 3.27734 255.021 3.25391 255.513 3.20703C256.38 3.13672 257.611 2.96094 259.205 2.67969C258.947 2.86719 258.701 3.05469 258.466 3.24219C258.255 3.40625 258.068 3.57031 257.904 3.73438L257.376 4.26172C257.072 4.68359 256.767 5.39844 256.462 6.40625C256.205 7.27344 255.923 8.49219 255.619 10.0625C255.337 11.6328 255.08 13.7188 254.845 16.3203C255.994 15.1953 257.072 14.3516 258.08 13.7891C259.111 13.2031 260.013 12.7812 260.787 12.5234C261.701 12.2422 262.533 12.0898 263.283 12.0664C264.244 12.1367 265.076 12.3359 265.779 12.6641C266.505 12.9688 267.115 13.3438 267.607 13.7891C268.122 14.2109 268.533 14.6562 268.837 15.125C269.165 15.5703 269.412 15.9688 269.576 16.3203C269.669 16.5547 269.74 16.9883 269.787 17.6211C269.857 18.2305 269.869 18.9336 269.822 19.7305C269.775 20.5273 269.646 21.3711 269.435 22.2617C269.247 23.1289 268.931 23.9375 268.486 24.6875C268.064 25.4141 267.501 26.0234 266.798 26.5156C266.119 27.0078 265.263 27.2773 264.232 27.3242C263.037 27.3242 261.876 27.1836 260.751 26.9023C259.79 26.668 258.771 26.2578 257.693 25.6719C256.638 25.0625 255.736 24.1953 254.986 23.0703C254.986 23.3516 254.986 23.6328 254.986 23.9141C254.986 24.1719 254.997 24.3945 255.021 24.582C255.044 24.8398 255.068 25.0625 255.091 25.25C255.115 25.4609 255.173 25.6836 255.267 25.918C255.337 26.1055 255.443 26.3398 255.583 26.6211C255.747 26.8789 255.958 27.1367 256.216 27.3945C255.958 27.3711 255.701 27.3594 255.443 27.3594C255.185 27.3359 254.927 27.3359 254.669 27.3594C254.388 27.3828 254.107 27.4062 253.826 27.4297C253.544 27.4531 253.251 27.4883 252.947 27.5352C252.689 27.582 252.384 27.6406 252.033 27.7109C251.681 27.7812 251.318 27.8633 250.943 27.957C251.013 27.7461 251.072 27.4414 251.119 27.043C251.165 26.6211 251.212 26.1641 251.259 25.6719C251.33 25.1562 251.376 24.6172 251.4 24.0547C251.447 23.4922 251.494 22.9297 251.54 22.3672C251.634 21.0781 251.716 19.6719 251.787 18.1484C251.857 15.7812 251.869 13.5781 251.822 11.5391C251.798 10.6719 251.751 9.79297 251.681 8.90234C251.634 8.01172 251.564 7.17969 251.47 6.40625C251.376 5.60938 251.247 4.90625 251.083 4.29688C250.943 3.66406 250.755 3.17188 250.521 2.82031ZM255.091 19.9414C255.466 20.6211 255.865 21.207 256.287 21.6992C256.708 22.168 257.13 22.5664 257.552 22.8945C257.974 23.2227 258.384 23.4805 258.783 23.668C259.205 23.8555 259.603 23.9961 259.978 24.0898C260.845 24.3242 261.701 24.3477 262.544 24.1602C263.388 23.9258 264.044 23.457 264.513 22.7539C264.982 22.0508 265.345 21.2539 265.603 20.3633C265.72 19.9414 265.79 19.4023 265.814 18.7461C265.861 18.0898 265.79 17.457 265.603 16.8477C265.439 16.2148 265.134 15.6641 264.689 15.1953C264.244 14.7031 263.599 14.4102 262.755 14.3164C262.169 14.3164 261.49 14.4805 260.716 14.8086C260.037 15.0898 259.228 15.5586 258.29 16.2148C257.353 16.8477 256.287 17.7969 255.091 19.0625V19.9414Z" fill="#335C67"/>
</svg>
